<svg width="209" height="121" viewBox="0 0 209 121" fill="none" xmlns="http://www.w3.org/2000/svg">
<path fill-rule="evenodd" clip-rule="evenodd" d="M96.4998 0C120.524 5.4503e-07 140 19.6995 140 44C140 68.3005 120.524 88 96.4998 88C72.4754 88 52.9998 68.3005 52.9998 44C52.9998 19.6995 72.4754 0 96.4998 0ZM92.1356 7L91.6092 7.27539H90.2938L90.0311 7.55078H88.9783L88.7147 7.82617H87.9256L87.6619 8.10156H86.8729L86.6092 8.37695H86.0828L85.8201 8.65234H85.2938L85.0301 8.92773H84.5037L84.241 9.20312H83.9774L83.7147 9.47852H83.1883L82.9246 9.75391H82.6619L82.3983 10.0293H82.1356L81.8719 10.3057H81.6092L81.3455 10.5811H81.0828L80.8192 10.8564L80.5565 11.1318H80.2928L79.7674 11.6826H79.5037L79.241 11.958L78.9774 12.2334L78.7147 12.5088H78.451L78.1883 12.7842L77.9246 13.0596L77.6619 13.335L77.3983 13.6104L77.1356 13.8857H76.8719L76.6092 14.1611L76.3455 14.4365L76.0828 14.7119L73.9774 16.916V17.1914L73.7137 17.4668L73.451 17.7422L73.1873 18.0176L72.9246 18.293L72.661 18.8438L72.3983 19.1191L72.1346 19.3945L71.8719 19.6699V19.9453L71.6082 20.2207L71.3455 20.4961L71.0819 20.7715V21.0469L70.8192 21.3223L70.5555 21.5977V21.873L70.0291 22.4248V22.7002L69.7664 22.9756L69.5028 23.251V23.5264L69.2401 23.8018L68.9764 24.0771V24.3525L68.7137 24.6279V24.9033L68.451 25.1787L68.1873 25.4541V25.7295L67.9246 26.0049V26.2803L67.661 26.5557L67.3983 26.8311V27.1064L67.1346 27.3818V27.6572L66.8719 27.9326V28.208L66.6082 28.4834V28.7598L66.3455 29.0352V29.3105L66.0819 29.5859V29.8613L65.8192 30.1367V30.6875L65.5555 30.9629V31.2383L65.2928 31.5137V32.0645L65.0291 32.3398V32.6152L64.7664 32.8906V33.4414L64.5028 33.7168V33.9922L64.2401 34.2676V34.8193L63.9764 35.0947V35.6455L63.7137 35.9209V36.7471L63.45 37.0225V42.2559L63.1873 42.5312V44.1836L63.9764 44.459L64.2401 44.7344H65.0291L65.2928 45.0098H65.8192L66.0819 45.2852H66.6082L66.8719 45.5605H67.1346L67.3983 45.8359H67.661L67.9246 46.1113H68.1873L68.451 46.3867H68.7137L68.9764 46.6621L69.2401 46.9375H69.5028L70.0291 47.4893H70.2928L70.5555 47.7646L70.8192 48.04L71.0819 48.3154L71.3455 48.5908L71.6082 48.8662L71.8719 49.1416L72.9246 50.2432L73.1873 50.5186L73.451 50.7939L73.7137 51.0693V51.3447L73.9774 51.6201L74.2401 51.8955L74.5037 52.1709V52.4463L74.7664 52.7217L75.0301 52.9971V53.2734L75.2928 53.5488L75.5565 53.8242V54.0996L75.8192 54.375V54.6504L76.0828 54.9258L76.3455 55.2012V55.4766L76.6092 55.752L76.8719 56.0273L77.1356 56.3027V56.5781L77.9246 57.4043L78.1883 57.6797L78.9774 58.5059H79.241L79.5037 58.7812L79.7674 59.0566L80.0301 59.332H80.2928L80.5565 59.6084H80.8192L81.0828 59.8838H81.3455L81.6092 60.1592H81.8719L82.1356 60.4346H82.3983L82.6619 60.71H83.1883L83.451 60.9854H84.241L84.5037 61.2607H86.0828L86.3465 61.5361H87.6619L87.9256 61.8115H88.9783L89.241 62.0869H90.0311L90.2938 62.3623H91.0838L91.3465 62.6377H91.8729L92.1356 62.9131H92.3992L92.6619 63.1885H92.9256L93.1883 63.4639H93.7147L93.9783 63.7393H94.5047L94.7674 64.0146H95.2938L95.5574 64.29H96.6102L96.8729 64.5654H98.7156L99.242 64.8408H100.557L100.821 64.5654H102.926L103.189 64.29H104.768L105.295 64.0146H106.874L107.137 63.7393H108.716L109.242 64.0146H110.032L110.295 64.29H110.558L110.821 64.5654H111.085L111.347 64.8408L111.611 65.1162L111.874 65.3916L112.138 65.9434L112.4 66.2188V68.4219L112.138 68.6973V69.248L111.874 69.5234L110.821 70.625L110.558 70.9004H110.295L110.032 71.1758H109.768L109.506 71.4512H108.979L108.716 71.7266H107.927L107.663 72.0029H106.874L106.61 72.2783H105.295L105.031 72.5537H102.926L101.347 72.8291H100.031L98.7156 72.5537H96.8729L96.6102 72.2783H95.5574L95.2938 72.0029H94.241L93.9783 72.2783H93.7147L93.452 72.5537V72.8291L93.1883 73.1045V74.2061L93.452 74.4814V74.7568L93.7147 75.0322L93.9783 75.3076H94.7674L95.0311 75.583H96.3465L96.6102 75.8584H98.7156L99.5047 76.1338H101.874L102.926 75.8584H105.031L105.295 75.583H106.61L106.874 75.3076H107.927L108.189 75.0322H108.979L109.242 74.7568H109.768L110.032 74.4814H110.558L110.821 74.2061H111.347L111.611 73.9307H111.874L112.138 73.6553L112.4 73.3799H112.664L112.927 73.1045L113.19 72.8291L113.453 72.5537L113.717 72.2783L113.979 71.7266L114.242 71.4512L114.506 71.1758V70.9004L114.768 70.625V70.0742L115.032 69.7988V69.248L115.295 68.9727V68.1465L115.558 67.8711L115.821 67.5957L116.085 67.3203H116.347L116.611 67.0449L116.874 66.7695L117.4 66.4941L117.664 66.2188L117.927 65.9434L118.19 65.668L118.453 65.3916L118.717 65.1162L118.979 64.8408L119.243 64.5654L119.506 64.29L119.769 64.0146L120.032 63.7393L120.296 63.4639L120.558 63.1885V62.9131L120.822 62.6377L121.085 62.3623L121.348 61.8115L121.611 61.5361L121.875 60.9854L122.138 60.71V60.4346L122.401 60.1592L122.664 59.8838V59.6084L122.928 59.332V59.0566L123.19 58.7812V58.5059L123.454 58.2305V57.9551L123.717 57.6797V57.4043L123.98 57.1289V56.8535L124.243 56.5781V56.3027L124.507 56.0273V55.4766L124.769 55.2012V54.9258L125.033 54.6504V53.8242L125.296 53.5488V52.9971L125.558 52.7217V51.8955L125.822 51.6201V49.9678L126.085 49.417V40.0518L126.348 39.7764V39.501L126.611 39.2256L126.875 38.9502L127.138 38.6748L127.401 38.3994H127.664L127.928 38.124H129.243L129.507 38.3994L130.559 39.501V39.7764L130.822 40.0518V40.6025L131.086 40.8779V41.9805L131.348 42.2559V44.459L131.612 45.0098V49.417L131.348 49.6924V51.8955L131.086 52.1709V53.2734L130.822 53.5488V54.6504L130.559 54.9258V55.752L130.296 56.0273V56.5781L130.033 56.8535V57.4043L129.769 57.6797V58.2305L129.507 58.5059V59.0566L129.243 59.332V59.6084L128.98 59.8838V60.4346L128.717 60.71V60.9854L128.454 61.2607V61.5361L128.19 61.8115V62.0869L127.928 62.3623V62.9131L127.664 63.1885V63.4639L127.401 63.7393L127.138 64.0146V64.29L126.875 64.5654V64.8408L126.611 65.1162V65.3916L126.348 65.668L126.085 66.2188L125.822 66.4941L125.558 66.7695V67.0449L125.296 67.3203L125.033 67.8711L124.769 68.1465L124.507 68.4219L124.243 68.9727L123.98 69.248L123.717 69.5234L123.454 69.7988L123.19 70.0742L120.296 73.1045L120.032 73.3799L119.769 73.6553L119.506 73.9307L118.979 74.2061L118.717 74.4814L118.453 74.7568L118.19 75.0322H117.927L117.664 75.3076L117.4 75.583H117.138L116.874 75.8584L116.611 76.1338H116.347L116.085 76.4092H115.821L115.558 76.6846L115.295 76.96H115.032L114.768 77.2354H114.506L114.242 77.5107H113.979L113.717 77.7861H113.19L112.927 78.0625H112.664L112.4 78.3379H111.874L111.611 78.6133H111.085L110.821 78.8887H110.558L110.295 79.1641H109.768L109.506 79.4395H109.242L108.979 79.7148V79.9902L108.716 80.2656V81.6426L108.979 81.918L109.242 82.4688H110.821L111.085 82.1934H111.611L111.874 81.918H112.4L112.664 81.6426H112.927L113.19 81.3672H113.453L113.717 81.0918H113.979L114.242 80.8164H114.768L115.032 80.541H115.295L115.558 80.2656H115.821L116.085 79.9902H116.347L116.611 79.7148H116.874L117.138 79.4395L117.4 79.1641H117.664L117.927 78.8887H118.19L118.453 78.6133L118.717 78.3379H118.979L119.243 78.0625L119.769 77.7861L120.032 77.5107L120.296 77.2354L120.822 76.96L121.085 76.6846L121.348 76.4092L121.875 76.1338L122.138 75.8584L122.401 75.583L122.664 75.3076L122.928 75.0322L123.19 74.7568H123.454V74.4814L123.717 74.2061H123.98L124.243 73.9307V73.6553L124.507 73.3799H124.769L125.033 73.1045L125.558 72.5537V72.2783L125.822 72.0029L126.085 71.7266L126.348 71.4512L126.611 71.1758L126.875 70.9004L127.138 70.3496L127.401 70.0742L127.664 69.7988L127.928 69.248L128.19 68.9727L128.454 68.6973V68.4219L128.717 68.1465L128.98 67.8711V67.5957L129.243 67.3203L129.507 67.0449V66.7695L129.769 66.4941V66.2188L130.033 65.9434V65.668L130.296 65.3916V65.1162L130.559 64.8408V64.5654L130.822 64.29V64.0146L131.086 63.7393V63.4639L131.348 63.1885V62.6377L131.612 62.3623V62.0869L131.875 61.8115V61.2607L132.138 60.9854V60.71L132.401 60.4346V59.8838L132.665 59.6084V59.0566L132.928 58.7812V58.2305L133.191 57.9551V57.1289L133.454 56.8535V56.3027L133.718 56.0273V54.9258L133.98 54.6504V53.5488L134.244 53.2734V51.0693L134.507 50.7939V42.5312L134.244 42.2559V40.6025L133.98 40.3271V38.6748L133.718 38.3994V36.4717L133.454 36.1963V35.0947L133.191 34.8193V33.9922L132.928 33.7168V33.166L132.665 32.8906V32.3398L132.401 32.0645V31.5137L132.138 31.2383V30.9629L131.875 30.6875V30.1367L131.612 29.8613V29.5859L131.348 29.3105V29.0352L130.822 28.4834V28.208L130.559 27.9326L130.296 27.6572L130.033 27.3818V27.1064L129.769 26.8311L129.507 26.5557H129.243L128.98 26.2803L128.717 26.0049H128.19L127.928 25.7295H126.085L125.822 26.0049H125.296L125.033 26.2803H124.769L124.507 26.5557H124.243L123.98 26.8311L123.717 27.1064H123.454L123.19 27.3818L122.928 27.6572L122.664 27.9326H122.401L122.138 28.208L121.348 29.0352H121.085L120.822 29.3105L120.558 29.5859L120.296 29.8613H120.032L119.769 30.1367L119.506 30.4121H119.243L118.979 30.6875H118.717L118.453 30.9629H118.19L117.927 31.2383H117.664L117.4 31.5137H116.874L116.611 31.7891H116.085L115.821 32.0645H115.295L115.032 32.3398H110.295L110.032 32.0645H108.979L108.716 31.7891H108.189L107.927 31.5137H107.4L107.137 31.2383H106.61L106.347 30.9629H105.821L105.557 30.6875H105.031L104.768 30.4121H103.978L103.716 30.1367H102.926L102.663 29.8613H101.61L101.084 29.5859H88.1883L87.9256 29.3105H86.8729L86.6092 29.0352H86.3465L86.0828 28.7598H85.8201L85.5565 28.4834H85.2938L85.0301 28.208L84.7674 27.9326L84.5037 27.6572L84.241 27.3818V27.1064L83.9774 26.8311V26.5557L83.7147 26.2803V24.6279L83.9774 24.3525V24.0771L84.241 23.8018L84.5037 23.5264L84.7674 23.251L85.0301 22.9756H85.2938L85.5565 22.7002H85.8201L86.0828 22.4248H90.8201L91.3465 22.7002H93.9783L94.5047 22.9756H95.8201L96.0838 23.251H97.1365L97.3992 23.5264H98.1893L98.452 23.8018H99.5047L99.7684 24.0771H100.295L100.557 24.3525H101.347L101.61 24.6279H102.4L102.663 24.9033H103.716L103.978 24.6279L104.505 24.3525V24.0771L104.768 23.8018V22.4248L104.242 21.873L103.978 21.5977H103.452L103.189 21.3223H102.4L102.137 21.0469H101.347L101.084 20.7715H100.295L100.031 20.4961H98.9783L98.7156 20.2207H97.9256L97.6629 19.9453H96.3465L96.0838 19.6699H94.5047L94.241 19.3945H92.1356L91.8729 19.1191H86.3465L86.0828 19.3945H85.0301L84.7674 19.6699H84.241L83.9774 19.9453H83.7147L83.451 20.2207H83.1883L82.9246 20.4961L82.6619 20.7715L82.3983 21.0469L82.1356 21.3223L81.8719 21.5977V21.873L81.6092 22.1484V22.4248L81.3455 22.7002V22.9756L81.0828 23.251V23.8018L80.8192 24.0771V24.6279L79.7674 25.7295L79.5037 26.0049L79.241 26.2803L78.9774 26.5557L78.7147 26.8311L78.451 27.1064L78.1883 27.3818L77.9246 27.6572L77.1356 28.4834V28.7598L76.8719 29.0352L76.6092 29.3105L75.8192 30.1367V30.4121L75.5565 30.6875L75.2928 30.9629V31.2383L75.0301 31.5137L74.7664 31.7891L74.5037 32.3398L74.2401 32.6152L73.9774 32.8906V33.166L73.7137 33.4414V33.7168L73.451 33.9922L73.1873 34.2676V34.543L72.9246 34.8193V35.0947L72.661 35.3701L72.3983 35.6455V35.9209L72.1346 36.1963V36.7471L71.8719 37.0225V37.2979L71.6082 37.5732V37.8486L71.3455 38.124V38.3994L71.0819 38.6748V38.9502L70.8192 39.2256L70.5555 39.501V39.7764L70.2928 40.0518L70.0291 40.3271H69.7664L69.5028 40.6025H69.2401L68.9764 40.8779L68.1873 40.6025H67.661L67.3983 40.3271L66.6082 39.501L66.3455 39.2256V38.124L66.6082 37.8486V37.0225L66.8719 36.7471V36.1963L67.1346 35.9209V35.6455L67.3983 35.3701V34.8193L67.661 34.543V33.9922L67.9246 33.7168V33.4414L68.1873 33.166V32.8906L68.451 32.6152V32.0645L68.7137 31.7891V31.5137L68.9764 31.2383V30.9629L69.2401 30.6875V30.4121L69.5028 30.1367V29.8613L69.7664 29.5859V29.3105L70.0291 29.0352V28.7598L70.2928 28.4834V28.208L70.5555 27.9326L70.8192 27.6572V27.3818L71.0819 27.1064V26.8311L71.3455 26.5557L71.6082 26.2803V26.0049L71.8719 25.7295L72.1346 25.1787L72.3983 24.9033L72.661 24.6279V24.3525L72.9246 24.0771L73.1873 23.5264L73.451 23.251L73.7137 22.9756V22.7002L73.9774 22.4248L74.2401 22.1484L74.5037 21.5977L74.7664 21.3223L75.0301 21.0469L75.8192 20.2207V19.9453L76.0828 19.6699L76.3455 19.3945L76.6092 19.1191L76.8719 18.8438L77.1356 18.5684L78.9774 16.6406L79.241 16.3652L79.5037 16.0889L79.7674 15.8135L80.0301 15.5381L80.5565 15.2627L80.8192 14.9873L81.0828 14.7119H81.3455L81.6092 14.4365L81.8719 14.1611H82.1356L82.3983 13.8857L82.6619 13.6104H82.9246L83.1883 13.335H83.451L83.7147 13.0596H83.9774L84.241 12.7842H84.5037L84.7674 12.5088H85.0301L85.2938 12.2334H85.5565L85.8201 11.958H86.3465L86.6092 11.6826H87.1356L87.3992 11.4072H87.9256L88.1883 11.1318H88.9783L89.241 10.8564H90.2938L90.5574 10.5811H91.6092L91.8729 10.3057H98.452L98.9783 10.5811H100.821L101.347 10.8564H101.874L102.137 10.5811H102.4L102.663 10.3057L102.926 10.0293V9.75391L103.189 9.47852V8.65234L102.926 8.37695V8.10156L102.4 7.55078H101.874L101.61 7.27539H99.242L98.7156 7H92.1356Z" fill="#41A69E"/>
<path d="M107.375 44C107.375 50.0751 102.506 55 96.4998 55C90.4937 55 85.6248 50.0751 85.6248 44C85.6248 37.9249 90.4937 33 96.4998 33C102.506 33 107.375 37.9249 107.375 44Z" fill="#FFCC70"/>
<path d="M104.409 44C104.409 48.4183 100.868 52 96.4998 52C92.1318 52 88.5907 48.4183 88.5907 44C88.5907 39.5817 92.1318 36 96.4998 36C100.868 36 104.409 39.5817 104.409 44Z" fill="#E3952C"/>
<path d="M102.432 44C102.432 47.3137 99.7759 50 96.4998 50C93.2238 50 90.568 47.3137 90.568 44C90.568 40.6863 93.2238 38 96.4998 38C99.7759 38 102.432 40.6863 102.432 44Z" fill="#FFCC70"/>
<path d="M16.4203 109.091H11.6135C11.5794 108.693 11.4885 108.332 11.3407 108.009C11.1987 107.685 10.9998 107.406 10.7441 107.173C10.4941 106.935 10.1902 106.753 9.83221 106.628C9.47425 106.497 9.068 106.432 8.61346 106.432C7.818 106.432 7.14471 106.625 6.59357 107.011C6.04812 107.398 5.63335 107.952 5.34925 108.673C5.07085 109.395 4.93164 110.261 4.93164 111.273C4.93164 112.341 5.07369 113.236 5.35778 113.957C5.64755 114.673 6.06516 115.213 6.61062 115.577C7.15607 115.935 7.81232 116.114 8.57937 116.114C9.01687 116.114 9.40891 116.06 9.7555 115.952C10.1021 115.838 10.4032 115.676 10.6589 115.466C10.9146 115.256 11.122 115.003 11.2811 114.707C11.4458 114.406 11.5566 114.068 11.6135 113.693L16.4203 113.727C16.3635 114.466 16.1561 115.219 15.7981 115.986C15.4402 116.747 14.9316 117.452 14.2725 118.099C13.6191 118.741 12.8095 119.259 11.8436 119.651C10.8777 120.043 9.7555 120.239 8.4771 120.239C6.87482 120.239 5.43732 119.895 4.1646 119.207C2.89755 118.52 1.89471 117.509 1.15607 116.173C0.423118 114.838 0.0566406 113.205 0.0566406 111.273C0.0566406 109.33 0.431641 107.693 1.18164 106.364C1.93164 105.028 2.943 104.02 4.21573 103.338C5.48846 102.651 6.90891 102.307 8.4771 102.307C9.57937 102.307 10.5936 102.457 11.5197 102.759C12.4458 103.06 13.2583 103.5 13.9572 104.08C14.6561 104.653 15.2186 105.361 15.6447 106.202C16.0708 107.043 16.3294 108.006 16.4203 109.091Z" fill="#41A69E"/>
<path d="M35.4792 111.273C35.4792 113.216 35.1014 114.855 34.3457 116.19C33.59 117.52 32.5701 118.528 31.286 119.216C30.002 119.898 28.5701 120.239 26.9906 120.239C25.3997 120.239 23.9622 119.895 22.6781 119.207C21.3997 118.514 20.3826 117.503 19.627 116.173C18.877 114.838 18.502 113.205 18.502 111.273C18.502 109.33 18.877 107.693 19.627 106.364C20.3826 105.028 21.3997 104.02 22.6781 103.338C23.9622 102.651 25.3997 102.307 26.9906 102.307C28.5701 102.307 30.002 102.651 31.286 103.338C32.5701 104.02 33.59 105.028 34.3457 106.364C35.1014 107.693 35.4792 109.33 35.4792 111.273ZM30.6042 111.273C30.6042 110.227 30.465 109.347 30.1866 108.631C29.9139 107.909 29.5076 107.364 28.9679 106.994C28.4338 106.619 27.7747 106.432 26.9906 106.432C26.2065 106.432 25.5446 106.619 25.0048 106.994C24.4707 107.364 24.0645 107.909 23.786 108.631C23.5133 109.347 23.377 110.227 23.377 111.273C23.377 112.318 23.5133 113.202 23.786 113.923C24.0645 114.639 24.4707 115.185 25.0048 115.56C25.5446 115.929 26.2065 116.114 26.9906 116.114C27.7747 116.114 28.4338 115.929 28.9679 115.56C29.5076 115.185 29.9139 114.639 30.1866 113.923C30.465 113.202 30.6042 112.318 30.6042 111.273Z" fill="#41A69E"/>
<path d="M54.5808 111.273C54.5808 113.216 54.2029 114.855 53.4473 116.19C52.6916 117.52 51.6717 118.528 50.3876 119.216C49.1035 119.898 47.6717 120.239 46.0922 120.239C44.5012 120.239 43.0637 119.895 41.7797 119.207C40.5012 118.514 39.4842 117.503 38.7285 116.173C37.9785 114.838 37.6035 113.205 37.6035 111.273C37.6035 109.33 37.9785 107.693 38.7285 106.364C39.4842 105.028 40.5012 104.02 41.7797 103.338C43.0637 102.651 44.5012 102.307 46.0922 102.307C47.6717 102.307 49.1035 102.651 50.3876 103.338C51.6717 104.02 52.6916 105.028 53.4473 106.364C54.2029 107.693 54.5808 109.33 54.5808 111.273ZM49.7058 111.273C49.7058 110.227 49.5666 109.347 49.2882 108.631C49.0154 107.909 48.6092 107.364 48.0694 106.994C47.5353 106.619 46.8762 106.432 46.0922 106.432C45.3081 106.432 44.6461 106.619 44.1064 106.994C43.5723 107.364 43.166 107.909 42.8876 108.631C42.6149 109.347 42.4785 110.227 42.4785 111.273C42.4785 112.318 42.6149 113.202 42.8876 113.923C43.166 114.639 43.5723 115.185 44.1064 115.56C44.6461 115.929 45.3081 116.114 46.0922 116.114C46.8762 116.114 47.5353 115.929 48.0694 115.56C48.6092 115.185 49.0154 114.639 49.2882 113.923C49.5666 113.202 49.7058 112.318 49.7058 111.273Z" fill="#41A69E"/>
<path d="M56.7733 120V102.545H64.3074C65.6028 102.545 66.7363 102.801 67.7079 103.312C68.6795 103.824 69.4352 104.543 69.975 105.469C70.5147 106.395 70.7846 107.477 70.7846 108.716C70.7846 109.966 70.5062 111.048 69.9494 111.963C69.3983 112.878 68.6227 113.582 67.6227 114.077C66.6284 114.571 65.4664 114.818 64.1369 114.818H59.6369V111.136H63.1824C63.7392 111.136 64.2136 111.04 64.6056 110.847C65.0034 110.648 65.3074 110.366 65.5176 110.003C65.7335 109.639 65.8414 109.21 65.8414 108.716C65.8414 108.216 65.7335 107.79 65.5176 107.438C65.3074 107.08 65.0034 106.807 64.6056 106.619C64.2136 106.426 63.7392 106.33 63.1824 106.33H61.5119V120H56.7733Z" fill="#41A69E"/>
<path d="M72.5233 120V102.545H80.0574C81.3528 102.545 82.4863 102.781 83.4579 103.253C84.4295 103.724 85.1852 104.403 85.725 105.29C86.2647 106.176 86.5346 107.239 86.5346 108.477C86.5346 109.727 86.2562 110.781 85.6994 111.639C85.1483 112.497 84.3727 113.145 83.3727 113.582C82.3784 114.02 81.2164 114.239 79.8869 114.239H75.3869V110.557H78.9324C79.4892 110.557 79.9636 110.489 80.3556 110.352C80.7534 110.21 81.0574 109.986 81.2676 109.679C81.4835 109.372 81.5914 108.972 81.5914 108.477C81.5914 107.977 81.4835 107.571 81.2676 107.259C81.0574 106.94 80.7534 106.707 80.3556 106.56C79.9636 106.406 79.4892 106.33 78.9324 106.33H77.2619V120H72.5233ZM82.7505 111.989L87.1142 120H81.9664L77.7051 111.989H82.7505Z" fill="#41A69E"/>
<path d="M88.5545 120V102.545H101.134V106.364H93.2931V109.364H100.486V113.182H93.2931V116.182H101.1V120H88.5545Z" fill="#41A69E"/>
<path d="M112.893 108C112.848 107.432 112.635 106.989 112.254 106.67C111.879 106.352 111.308 106.193 110.541 106.193C110.052 106.193 109.652 106.253 109.339 106.372C109.032 106.486 108.805 106.642 108.657 106.841C108.51 107.04 108.433 107.267 108.427 107.523C108.416 107.733 108.453 107.923 108.538 108.094C108.629 108.259 108.771 108.409 108.964 108.545C109.157 108.676 109.405 108.795 109.706 108.903C110.007 109.011 110.365 109.108 110.78 109.193L112.211 109.5C113.177 109.705 114.004 109.974 114.692 110.31C115.379 110.645 115.942 111.04 116.379 111.494C116.817 111.943 117.138 112.449 117.342 113.011C117.552 113.574 117.66 114.187 117.666 114.852C117.66 116 117.373 116.972 116.805 117.767C116.237 118.562 115.425 119.168 114.368 119.582C113.317 119.997 112.052 120.205 110.575 120.205C109.058 120.205 107.734 119.98 106.604 119.531C105.479 119.082 104.604 118.392 103.979 117.46C103.359 116.523 103.047 115.324 103.041 113.864H107.541C107.569 114.398 107.703 114.847 107.942 115.21C108.18 115.574 108.515 115.849 108.947 116.037C109.385 116.224 109.905 116.318 110.507 116.318C111.013 116.318 111.436 116.256 111.777 116.131C112.118 116.006 112.376 115.832 112.552 115.611C112.729 115.389 112.819 115.136 112.825 114.852C112.819 114.585 112.731 114.352 112.561 114.153C112.396 113.949 112.123 113.767 111.743 113.608C111.362 113.443 110.848 113.29 110.2 113.148L108.461 112.773C106.916 112.438 105.697 111.878 104.805 111.094C103.919 110.304 103.479 109.227 103.484 107.864C103.479 106.756 103.774 105.787 104.371 104.957C104.973 104.122 105.805 103.472 106.868 103.006C107.936 102.54 109.16 102.307 110.541 102.307C111.95 102.307 113.169 102.543 114.197 103.014C115.226 103.486 116.018 104.151 116.575 105.009C117.138 105.861 117.422 106.858 117.427 108H112.893Z" fill="#41A69E"/>
<path d="M118.991 106.364V102.545H134.162V106.364H128.912V120H124.241V106.364H118.991Z" fill="#41A69E"/>
<path d="M138.276 120H133.162L138.924 102.545H145.401L151.162 120H146.049L142.231 107.352H142.094L138.276 120ZM137.322 113.114H146.935V116.659H137.322V113.114Z" fill="#41A69E"/>
<path d="M152.844 102.545H158.741L162.798 112.432H163.003L167.059 102.545H172.957V120H168.321V109.909H168.184L164.298 119.864H161.503L157.616 109.841H157.48V120H152.844V102.545Z" fill="#41A69E"/>
<path d="M192.112 111.273C192.112 113.216 191.734 114.855 190.979 116.19C190.223 117.52 189.203 118.528 187.919 119.216C186.635 119.898 185.203 120.239 183.623 120.239C182.032 120.239 180.595 119.895 179.311 119.207C178.032 118.514 177.015 117.503 176.26 116.173C175.51 114.838 175.135 113.205 175.135 111.273C175.135 109.33 175.51 107.693 176.26 106.364C177.015 105.028 178.032 104.02 179.311 103.338C180.595 102.651 182.032 102.307 183.623 102.307C185.203 102.307 186.635 102.651 187.919 103.338C189.203 104.02 190.223 105.028 190.979 106.364C191.734 107.693 192.112 109.33 192.112 111.273ZM187.237 111.273C187.237 110.227 187.098 109.347 186.819 108.631C186.547 107.909 186.14 107.364 185.601 106.994C185.067 106.619 184.407 106.432 183.623 106.432C182.839 106.432 182.177 106.619 181.638 106.994C181.104 107.364 180.697 107.909 180.419 108.631C180.146 109.347 180.01 110.227 180.01 111.273C180.01 112.318 180.146 113.202 180.419 113.923C180.697 114.639 181.104 115.185 181.638 115.56C182.177 115.929 182.839 116.114 183.623 116.114C184.407 116.114 185.067 115.929 185.601 115.56C186.14 115.185 186.547 114.639 186.819 113.923C187.098 113.202 187.237 112.318 187.237 111.273Z" fill="#41A69E"/>
<path d="M203.714 108C203.668 107.432 203.455 106.989 203.074 106.67C202.699 106.352 202.128 106.193 201.361 106.193C200.873 106.193 200.472 106.253 200.16 106.372C199.853 106.486 199.626 106.642 199.478 106.841C199.33 107.04 199.253 107.267 199.248 107.523C199.236 107.733 199.273 107.923 199.358 108.094C199.449 108.259 199.591 108.409 199.785 108.545C199.978 108.676 200.225 108.795 200.526 108.903C200.827 109.011 201.185 109.108 201.6 109.193L203.032 109.5C203.998 109.705 204.824 109.974 205.512 110.31C206.199 110.645 206.762 111.04 207.199 111.494C207.637 111.943 207.958 112.449 208.162 113.011C208.373 113.574 208.481 114.187 208.486 114.852C208.481 116 208.194 116.972 207.626 117.767C207.057 118.562 206.245 119.168 205.188 119.582C204.137 119.997 202.873 120.205 201.395 120.205C199.878 120.205 198.555 119.98 197.424 119.531C196.299 119.082 195.424 118.392 194.799 117.46C194.18 116.523 193.867 115.324 193.861 113.864H198.361C198.39 114.398 198.523 114.847 198.762 115.21C199.001 115.574 199.336 115.849 199.768 116.037C200.205 116.224 200.725 116.318 201.327 116.318C201.833 116.318 202.256 116.256 202.597 116.131C202.938 116.006 203.197 115.832 203.373 115.611C203.549 115.389 203.64 115.136 203.645 114.852C203.64 114.585 203.552 114.352 203.381 114.153C203.216 113.949 202.944 113.767 202.563 113.608C202.182 113.443 201.668 113.29 201.02 113.148L199.282 112.773C197.736 112.438 196.518 111.878 195.626 111.094C194.739 110.304 194.299 109.227 194.305 107.864C194.299 106.756 194.594 105.787 195.191 104.957C195.793 104.122 196.626 103.472 197.688 103.006C198.756 102.54 199.981 102.307 201.361 102.307C202.77 102.307 203.989 102.543 205.018 103.014C206.046 103.486 206.839 104.151 207.395 105.009C207.958 105.861 208.242 106.858 208.248 108H203.714Z" fill="#41A69E"/>
</svg>
