<svg version="1.2" xmlns="http://www.w3.org/2000/svg" viewBox="0 0 103 90" width="103" height="90">
	<style>
		.s0 { fill: #41a69e } 
		.s1 { fill: #ffcc70 } 
		.s2 { fill: #e3952c } 
	</style>
	<path fill-rule="evenodd" class="s0" d="m50.5 0c24.02 0 43.5 19.7 43.5 44 0 24.3-19.48 44-43.5 44-24.02 0-43.5-19.7-43.5-44 0-24.3 19.48-44 43.5-44zm-4.36 7l-0.53 0.28h-1.32l-0.26 0.27h-1.05l-0.27 0.28h-0.78l-0.27 0.27h-0.79l-0.26 0.28h-0.53l-0.26 0.27h-0.53l-0.26 0.28h-0.53l-0.26 0.27h-0.26l-0.27 0.28h-0.52l-0.27 0.27h-0.26l-0.26 0.28h-0.26l-0.27 0.28h-0.26l-0.26 0.27h-0.27l-0.26 0.28-0.26 0.27h-0.27l-0.52 0.55h-0.27l-0.26 0.28-0.26 0.27-0.27 0.28h-0.26l-0.26 0.27-0.27 0.28-0.26 0.28-0.26 0.27-0.26 0.28h-0.27l-0.26 0.27-0.26 0.28-0.27 0.27-2.1 2.21v0.27l-0.27 0.28-0.26 0.27-0.26 0.28-0.27 0.27-0.26 0.55-0.26 0.28-0.27 0.27-0.26 0.28v0.28l-0.26 0.27-0.26 0.28-0.27 0.27v0.28l-0.26 0.27-0.26 0.28v0.27l-0.53 0.55v0.28l-0.26 0.28-0.27 0.27v0.28l-0.26 0.27-0.26 0.28v0.27l-0.27 0.28v0.27l-0.26 0.28-0.26 0.27v0.28l-0.27 0.27v0.28l-0.26 0.28-0.26 0.27v0.28l-0.27 0.27v0.28l-0.26 0.27v0.28l-0.26 0.27v0.28l-0.26 0.28v0.27l-0.27 0.28v0.27l-0.26 0.28v0.55l-0.26 0.27v0.28l-0.27 0.27v0.55l-0.26 0.28v0.28l-0.26 0.27v0.55l-0.27 0.28v0.27l-0.26 0.28v0.55l-0.26 0.27v0.56l-0.27 0.27v0.83l-0.26 0.27v5.24l-0.26 0.27v1.65l0.79 0.28 0.26 0.27h0.79l0.26 0.28h0.53l0.26 0.28h0.53l0.26 0.27h0.26l0.27 0.28h0.26l0.26 0.27h0.27l0.26 0.28h0.26l0.27 0.27 0.26 0.28h0.26l0.53 0.55h0.26l0.27 0.27 0.26 0.28 0.26 0.28 0.27 0.27 0.26 0.28 0.26 0.27 1.05 1.1 0.27 0.28 0.26 0.27 0.26 0.28v0.27l0.27 0.28 0.26 0.28 0.26 0.27v0.28l0.27 0.27 0.26 0.28v0.27l0.26 0.28 0.27 0.27v0.28l0.26 0.27v0.28l0.26 0.28 0.27 0.27v0.28l0.26 0.27 0.26 0.28 0.27 0.27v0.28l0.78 0.82 0.27 0.28 0.79 0.83h0.26l0.26 0.27 0.27 0.28 0.26 0.27h0.26l0.27 0.28h0.26l0.26 0.27h0.27l0.26 0.28h0.26l0.27 0.27h0.26l0.26 0.28h0.53l0.26 0.28h0.79l0.26 0.27h1.58l0.27 0.28h1.31l0.27 0.27h1.05l0.26 0.28h0.79l0.26 0.27h0.79l0.27 0.28h0.52l0.27 0.27h0.26l0.26 0.28h0.27l0.26 0.27h0.52l0.27 0.28h0.52l0.27 0.27h0.52l0.27 0.28h1.05l0.26 0.28h1.85l0.52 0.27h1.32l0.26-0.27h2.11l0.26-0.28h1.58l0.53-0.28h1.57l0.27-0.27h1.58l0.52 0.27h0.79l0.27 0.28h0.26l0.26 0.28h0.26l0.27 0.27 0.26 0.28 0.26 0.27 0.27 0.55 0.26 0.28v2.2l-0.26 0.28v0.55l-0.27 0.27-1.05 1.1-0.26 0.28h-0.26l-0.27 0.28h-0.26l-0.26 0.27h-0.53l-0.26 0.28h-0.79l-0.27 0.27h-0.79l-0.26 0.28h-1.31l-0.27 0.27h-2.1l-1.58 0.28h-1.32l-1.31-0.28h-1.85l-0.26-0.27h-1.05l-0.27-0.28h-1.05l-0.26 0.28h-0.27l-0.26 0.27v0.28l-0.26 0.27v1.11l0.26 0.27v0.28l0.26 0.27 0.27 0.28h0.79l0.26 0.27h1.32l0.26 0.28h2.11l0.78 0.27h2.37l1.06-0.27h2.1l0.27-0.28h1.31l0.26-0.27h1.06l0.26-0.28h0.79l0.26-0.27h0.53l0.26-0.28h0.53l0.26-0.27h0.53l0.26-0.28h0.26l0.27-0.27 0.26-0.28h0.26l0.79-0.83 0.27-0.27 0.26-0.55 0.26-0.28 0.27-0.27v-0.28l0.26-0.28v-0.55l0.26-0.27v-0.55l0.27-0.28v-0.82l0.52-0.55 0.26-0.28h0.27l0.26-0.28 0.26-0.27 0.53-0.28 0.26-0.27 0.53-0.55 0.26-0.28 0.27-0.27 0.26-0.28 0.26-0.27 0.53-0.56 0.26-0.27 0.27-0.28 0.26-0.27v-0.28l0.26-0.27 0.26-0.28 0.27-0.55 0.26-0.27 0.26-0.55 0.27-0.28v-0.28l0.52-0.55v-0.27l0.27-0.28v-0.27l0.26-0.28v-0.27l0.26-0.28v-0.27l0.27-0.28v-0.28l0.26-0.27v-0.28l0.26-0.27v-0.28l0.27-0.27v-0.55l0.26-0.28v-0.27l0.26-0.28v-0.83l0.27-0.27v-0.55l0.26-0.28v-0.82l0.26-0.28v-1.65l0.26-0.55v-9.37l0.27-0.27v-0.28l0.26-0.27 0.26-0.28 0.53-0.55h0.26l0.27-0.28h1.31l0.27 0.28 1.05 1.1v0.28l0.26 0.27v0.55l0.27 0.28v1.1l0.26 0.28v2.2l0.26 0.55v4.41l-0.26 0.27v2.21l-0.26 0.27v1.1l-0.27 0.28v1.1l-0.26 0.28v0.82l-0.26 0.28v0.55l-0.27 0.27v0.55l-0.26 0.28v0.55l-0.26 0.28v0.55l-0.27 0.27v0.28l-0.26 0.27v0.55l-0.26 0.28v0.28l-0.27 0.27v0.28l-0.26 0.27v0.28l-0.26 0.27v0.55l-0.27 0.28v0.27l-0.26 0.28-0.26 0.27v0.28l-0.27 0.28v0.27l-0.26 0.28v0.27l-0.26 0.28-0.27 0.55-0.26 0.27-0.26 0.28v0.27l-0.26 0.28-0.27 0.55-0.26 0.28-0.26 0.27-0.27 0.55-0.26 0.28-0.53 0.55-0.26 0.27-2.89 3.03-0.27 0.28-0.52 0.55-0.53 0.28-0.26 0.27-0.27 0.28-0.26 0.27h-0.26l-0.27 0.28-0.26 0.27h-0.26l-0.27 0.28-0.26 0.27h-0.26l-0.27 0.28h-0.26l-0.52 0.55h-0.27l-0.26 0.28h-0.26l-0.27 0.27h-0.26l-0.26 0.28h-0.53l-0.26 0.27h-0.27l-0.26 0.28h-0.53l-0.26 0.27h-0.53l-0.26 0.28h-0.26l-0.26 0.27h-0.53l-0.26 0.28h-0.27l-0.26 0.27v0.28l-0.26 0.28v1.37l0.26 0.28 0.26 0.55h1.58l0.26-0.28h0.53l0.26-0.27h0.53l0.26-0.28h0.27l0.26-0.27h0.26l0.27-0.28h0.26l0.26-0.27h0.53l0.26-0.28h0.27l0.26-0.27h0.26l0.26-0.28h0.27l0.26-0.28h0.26l0.27-0.27 0.26-0.28h0.26l0.27-0.27h0.26l0.26-0.28 0.27-0.27h0.26l0.26-0.28 0.53-0.27 0.26-0.28 0.27-0.27 0.52-0.28 0.53-0.55 0.52-0.28 0.79-0.82 0.27-0.28 0.26-0.27h0.26v-0.28l0.27-0.27h0.26l0.26-0.28v-0.27l0.27-0.28h0.26l0.26-0.28 0.53-0.55v-0.27l0.26-0.28 0.26-0.27 0.53-0.55 0.26-0.28 0.27-0.55 0.52-0.55 0.27-0.55 0.26-0.28 0.26-0.27v-0.28l0.53-0.55v-0.27l0.26-0.28 0.27-0.28v-0.27l0.26-0.28v-0.27l0.26-0.28v-0.27l0.27-0.28v-0.27l0.26-0.28v-0.27l0.26-0.28v-0.28l0.27-0.27v-0.28l0.26-0.27v-0.55l0.26-0.28v-0.27l0.26-0.28v-0.55l0.27-0.27v-0.28l0.26-0.28v-0.55l0.26-0.27v-0.55l0.27-0.28v-0.55l0.26-0.27v-0.83l0.26-0.28v-0.55l0.27-0.27v-1.1l0.26-0.28v-1.1l0.26-0.28v-2.2l0.27-0.28v-8.26l-0.27-0.27v-1.66l-0.26-0.27v-1.66l-0.26-0.27v-1.93l-0.27-0.27v-1.11l-0.26-0.27v-0.83l-0.26-0.27v-0.55l-0.27-0.28v-0.55l-0.26-0.28v-0.55l-0.26-0.27v-0.28l-0.27-0.27v-0.55l-0.26-0.28v-0.27l-0.26-0.28v-0.27l-0.53-0.56v-0.27l-0.79-0.83v-0.27l-0.26-0.28-0.26-0.27h-0.27l-0.52-0.56h-0.53l-0.26-0.27h-1.85l-0.26 0.27h-0.52l-0.27 0.28h-0.26l-0.26 0.28h-0.27l-0.26 0.27-0.26 0.28h-0.27l-0.26 0.27-0.26 0.28-0.27 0.27h-0.26l-0.26 0.28-0.79 0.83h-0.27l-0.26 0.27-0.26 0.28-0.26 0.27h-0.27l-0.52 0.55h-0.27l-0.26 0.28h-0.26l-0.27 0.27h-0.26l-0.26 0.28h-0.27l-0.26 0.27h-0.53l-0.26 0.28h-0.53l-0.26 0.27h-0.52l-0.27 0.28h-4.73l-0.27-0.28h-1.05l-0.26-0.27h-0.53l-0.26-0.28h-0.53l-0.26-0.27h-0.53l-0.26-0.28h-0.53l-0.26-0.27h-0.53l-0.26-0.28h-0.79l-0.26-0.27h-0.79l-0.27-0.28h-1.05l-0.53-0.27h-12.89l-0.26-0.28h-1.06l-0.26-0.27h-0.26l-0.27-0.28h-0.26l-0.26-0.28h-0.27l-0.26-0.27-0.26-0.28-0.27-0.27-0.26-0.28v-0.27l-0.26-0.28v-0.27l-0.27-0.28v-1.65l0.27-0.28v-0.27l0.26-0.28 0.26-0.27 0.27-0.28 0.26-0.27h0.26l0.27-0.28h0.26l0.26-0.28h4.74l0.53 0.28h2.63l0.52 0.28h1.32l0.26 0.27h1.06l0.26 0.28h0.79l0.26 0.27h1.05l0.27 0.28h0.53l0.26 0.27h0.79l0.26 0.28h0.79l0.26 0.27h1.06l0.26-0.27 0.52-0.28v-0.27l0.27-0.28v-1.38l-0.53-0.55-0.26-0.27h-0.53l-0.26-0.28h-0.79l-0.26-0.27h-0.79l-0.27-0.28h-0.78l-0.27-0.27h-1.05l-0.26-0.28h-0.79l-0.27-0.27h-1.31l-0.27-0.28h-1.58l-0.26-0.28h-2.1l-0.27-0.27h-5.52l-0.27 0.27h-1.05l-0.26 0.28h-0.53l-0.26 0.28h-0.27l-0.26 0.27h-0.26l-0.27 0.28-0.26 0.27-0.26 0.28-0.26 0.27-0.27 0.28v0.27l-0.26 0.28v0.27l-0.26 0.28v0.28l-0.27 0.27v0.55l-0.26 0.28v0.55l-1.05 1.1-0.27 0.27-0.26 0.28-0.26 0.28-0.27 0.27-0.26 0.28-0.26 0.27-0.27 0.28-0.78 0.82v0.28l-0.27 0.28-0.26 0.27-0.79 0.83v0.27l-0.26 0.28-0.27 0.27v0.28l-0.26 0.27-0.26 0.28-0.27 0.55-0.26 0.28-0.26 0.27v0.28l-0.27 0.27v0.28l-0.26 0.27-0.26 0.28v0.27l-0.27 0.28v0.27l-0.26 0.28-0.26 0.28v0.27l-0.27 0.28v0.55l-0.26 0.27v0.28l-0.26 0.27v0.28l-0.26 0.27v0.28l-0.27 0.27v0.28l-0.26 0.28-0.26 0.27v0.28l-0.27 0.27-0.26 0.28h-0.26l-0.27 0.27h-0.26l-0.26 0.28-0.79-0.28h-0.53l-0.26-0.27-0.79-0.83-0.26-0.27v-1.11l0.26-0.27v-0.83l0.26-0.27v-0.55l0.26-0.28v-0.27l0.27-0.28v-0.55l0.26-0.28v-0.55l0.26-0.27v-0.28l0.27-0.27v-0.28l0.26-0.27v-0.56l0.26-0.27v-0.28l0.27-0.27v-0.28l0.26-0.27v-0.28l0.26-0.27v-0.28l0.27-0.27v-0.28l0.26-0.27v-0.28l0.26-0.28v-0.27l0.27-0.28 0.26-0.27v-0.28l0.26-0.27v-0.28l0.27-0.27 0.26-0.28v-0.28l0.26-0.27 0.26-0.55 0.27-0.28 0.26-0.27v-0.28l0.26-0.27 0.27-0.55 0.26-0.28 0.26-0.27v-0.28l0.27-0.28 0.26-0.27 0.26-0.55 0.27-0.28 0.26-0.27 0.79-0.83v-0.27l0.26-0.28 0.27-0.28 0.26-0.27 0.26-0.28 0.27-0.27 1.84-1.93 0.26-0.27 0.26-0.28 0.27-0.28 0.26-0.27 0.53-0.28 0.26-0.27 0.26-0.28h0.27l0.26-0.27 0.26-0.28h0.27l0.26-0.27 0.26-0.28h0.26l0.27-0.27h0.26l0.26-0.28h0.27l0.26-0.28h0.26l0.27-0.27h0.26l0.26-0.28h0.27l0.26-0.27h0.53l0.26-0.28h0.53l0.26-0.27h0.53l0.26-0.28h0.79l0.26-0.27h1.05l0.27-0.28h1.05l0.26-0.27h6.58l0.53 0.27h1.84l0.53 0.28h0.52l0.27-0.28h0.26l0.26-0.27 0.27-0.28v-0.28l0.26-0.27v-0.83l-0.26-0.27v-0.28l-0.53-0.55h-0.53l-0.26-0.27h-2.37l-0.52-0.28z"/>
	<path class="s1" d="m61.38 44c-0.01 6.08-4.87 11-10.88 11-6.01 0-10.88-4.92-10.88-11 0-6.08 4.87-11 10.88-11 6.01 0 10.87 4.92 10.87 11z"/>
	<path class="s2" d="m58.41 44c0 4.42-3.54 8-7.91 8-4.37 0-7.91-3.58-7.91-8 0-4.42 3.54-8 7.91-8 4.37 0 7.91 3.58 7.91 8z"/>
	<path class="s1" d="m56.43 44c0 3.31-2.65 6-5.93 6-3.28 0-5.93-2.69-5.93-6 0-3.31 2.65-6 5.93-6 3.28 0 5.93 2.69 5.93 6z"/>
	<path class="s0" d="m-29.58 109.09h-4.81q-0.05-0.6-0.27-1.08-0.21-0.49-0.6-0.84-0.37-0.35-0.91-0.54-0.53-0.2-1.22-0.2-1.19 0-2.02 0.58-0.81 0.58-1.24 1.66-0.42 1.09-0.42 2.6 0 1.61 0.43 2.69 0.43 1.07 1.25 1.62 0.82 0.53 1.97 0.53 0.66 0 1.18-0.16 0.52-0.17 0.9-0.48 0.38-0.32 0.62-0.76 0.25-0.45 0.33-1.02l4.81 0.04q-0.08 1.11-0.62 2.26-0.54 1.14-1.53 2.11-0.98 0.96-2.43 1.55-1.45 0.59-3.36 0.59-2.41 0-4.32-1.03-1.9-1.03-3-3.04-1.1-2-1.1-4.9 0-2.91 1.12-4.91 1.13-2 3.04-3.02 1.9-1.03 4.26-1.03 1.65 0 3.04 0.45 1.39 0.45 2.44 1.32 1.05 0.86 1.68 2.12 0.64 1.26 0.78 2.89z"/>
	<path class="s0" d="m-10.52 111.27q0 2.92-1.13 4.92-1.14 1.99-3.06 3.03-1.93 1.02-4.3 1.02-2.39 0-4.31-1.03-1.92-1.04-3.05-3.04-1.13-2-1.13-4.9 0-2.91 1.13-4.91 1.13-2 3.05-3.02 1.92-1.03 4.31-1.03 2.37 0 4.3 1.03 1.92 1.02 3.06 3.02 1.13 2 1.13 4.91zm-4.88 0q0-1.57-0.41-2.64-0.41-1.08-1.22-1.64-0.8-0.56-1.98-0.56-1.18 0-1.99 0.56-0.8 0.56-1.21 1.64-0.41 1.07-0.41 2.64 0 1.57 0.41 2.65 0.41 1.08 1.21 1.64 0.81 0.55 1.99 0.55 1.18 0 1.98-0.55 0.81-0.56 1.22-1.64 0.41-1.08 0.41-2.65z"/>
	<path class="s0" d="m8.58 111.27q0 2.92-1.13 4.92-1.14 1.99-3.06 3.03-1.93 1.02-4.3 1.02-2.38 0-4.31-1.03-1.92-1.04-3.05-3.04-1.13-2-1.13-4.9 0-2.91 1.13-4.91 1.13-2 3.05-3.02 1.93-1.03 4.31-1.03 2.37 0 4.3 1.03 1.92 1.02 3.06 3.02 1.13 2 1.13 4.91zm-4.87 0q0-1.57-0.42-2.64-0.41-1.08-1.22-1.64-0.8-0.56-1.98-0.56-1.17 0-1.98 0.56-0.8 0.56-1.22 1.64-0.41 1.07-0.41 2.64 0 1.57 0.41 2.65 0.42 1.08 1.22 1.64 0.81 0.55 1.98 0.55 1.18 0 1.98-0.55 0.81-0.56 1.22-1.64 0.42-1.08 0.42-2.65z"/>
	<path class="s0" d="m10.77 120v-17.45h7.54q1.94 0 3.4 0.76 1.46 0.77 2.26 2.16 0.81 1.39 0.81 3.25 0 1.87-0.83 3.24-0.83 1.38-2.33 2.12-1.49 0.74-3.48 0.74h-4.5v-3.68h3.54q0.84 0 1.43-0.29 0.59-0.3 0.91-0.85 0.32-0.54 0.32-1.28 0-0.75-0.32-1.28-0.32-0.54-0.91-0.82-0.59-0.29-1.43-0.29h-1.67v13.67z"/>
	<path class="s0" d="m26.52 120v-17.45h7.54q1.94 0 3.4 0.7 1.46 0.71 2.26 2.04 0.81 1.33 0.81 3.19 0 1.87-0.83 3.16-0.83 1.29-2.33 1.94-1.49 0.66-3.48 0.66h-4.5v-3.68h3.54q0.84 0 1.43-0.21 0.59-0.21 0.91-0.67 0.32-0.46 0.32-1.2 0-0.75-0.32-1.22-0.32-0.48-0.91-0.7-0.59-0.23-1.43-0.23h-1.67v13.67zm10.23-8.01l4.36 8.01h-5.15l-4.26-8.01z"/>
	<path class="s0" d="m42.55 120v-17.45h12.58v3.81h-7.84v3h7.2v3.82h-7.2v3h7.81v3.82z"/>
	<path class="s0" d="m66.89 108q-0.06-0.85-0.64-1.33-0.56-0.48-1.71-0.48-0.73 0-1.2 0.18-0.46 0.17-0.68 0.47-0.22 0.3-0.23 0.68-0.02 0.32 0.11 0.57 0.13 0.25 0.42 0.46 0.29 0.19 0.75 0.35 0.45 0.17 1.07 0.29l1.43 0.31q1.45 0.31 2.48 0.81 1.03 0.5 1.69 1.18 0.66 0.68 0.96 1.52 0.32 0.84 0.33 1.84-0.01 1.72-0.86 2.92-0.86 1.19-2.44 1.81-1.58 0.62-3.79 0.62-2.28 0-3.98-0.67-1.68-0.67-2.62-2.07-0.93-1.41-0.94-3.6h4.5q0.04 0.81 0.4 1.35 0.36 0.55 1.01 0.83 0.65 0.28 1.56 0.28 0.76 0 1.27-0.19 0.51-0.19 0.77-0.52 0.27-0.33 0.28-0.76-0.01-0.4-0.27-0.7-0.25-0.3-0.82-0.54-0.57-0.25-1.54-0.46l-1.74-0.38q-2.32-0.5-3.65-1.68-1.33-1.18-1.33-3.23 0-1.66 0.89-2.9 0.9-1.26 2.5-1.95 1.6-0.7 3.67-0.7 2.11 0 3.66 0.7 1.54 0.71 2.38 2 0.84 1.28 0.85 2.99z"/>
	<path class="s0" d="m72.99 106.36v-3.81h15.17v3.81h-5.25v13.64h-4.67v-13.64z"/>
	<path class="s0" d="m92.28 120h-5.12l5.76-17.45h6.48l5.76 17.45h-5.11l-3.82-12.65h-0.14zm-0.95-6.88h9.61v3.54h-9.61z"/>
	<path class="s0" d="m106.84 102.55h5.9l4.06 9.88h0.2l4.06-9.88h5.9v17.45h-4.64v-10.09h-0.14l-3.88 9.95h-2.8l-3.88-10.02h-0.14v10.16h-4.64z"/>
	<path class="s0" d="m146.11 111.27q0 2.92-1.13 4.92-1.13 1.99-3.06 3.03-1.93 1.02-4.3 1.02-2.38 0-4.31-1.03-1.92-1.04-3.05-3.04-1.13-2-1.13-4.9 0-2.91 1.13-4.91 1.13-2 3.05-3.02 1.93-1.03 4.31-1.03 2.37 0 4.3 1.03 1.93 1.02 3.06 3.02 1.13 2 1.13 4.91zm-4.87 0q0-1.57-0.42-2.64-0.41-1.08-1.22-1.64-0.8-0.56-1.98-0.56-1.17 0-1.98 0.56-0.8 0.56-1.22 1.64-0.41 1.07-0.41 2.64 0 1.57 0.41 2.65 0.42 1.08 1.22 1.64 0.81 0.55 1.98 0.55 1.18 0 1.98-0.55 0.81-0.56 1.22-1.64 0.42-1.08 0.42-2.65z"/>
	<path class="s0" d="m157.71 108q-0.06-0.85-0.64-1.33-0.56-0.48-1.71-0.48-0.73 0-1.2 0.18-0.46 0.17-0.68 0.47-0.22 0.3-0.23 0.68-0.02 0.32 0.11 0.57 0.13 0.25 0.42 0.46 0.29 0.19 0.75 0.35 0.45 0.17 1.07 0.29l1.43 0.31q1.45 0.31 2.48 0.81 1.03 0.5 1.69 1.18 0.66 0.68 0.96 1.52 0.32 0.84 0.33 1.84-0.01 1.72-0.86 2.92-0.86 1.19-2.44 1.81-1.58 0.62-3.79 0.62-2.28 0-3.98-0.67-1.68-0.67-2.62-2.07-0.93-1.41-0.94-3.6h4.5q0.04 0.81 0.4 1.35 0.36 0.55 1.01 0.83 0.65 0.28 1.56 0.28 0.76 0 1.27-0.19 0.51-0.19 0.77-0.52 0.27-0.33 0.28-0.76-0.01-0.4-0.27-0.7-0.25-0.3-0.82-0.54-0.57-0.25-1.54-0.46l-1.74-0.38q-2.32-0.5-3.65-1.68-1.33-1.18-1.33-3.23 0-1.66 0.89-2.9 0.9-1.26 2.5-1.95 1.6-0.7 3.67-0.7 2.11 0 3.66 0.7 1.54 0.71 2.38 2 0.84 1.28 0.85 2.99z"/>
</svg>